# xmcd
# Copyright (C) 1995-1998 Ti Kan
#
# Track frame offsets:
#       150
#       24485
#       53845
#       85975
#       107375
#       159195
#       200992
#       223670
#
# Disc length: 3166 seconds
#
# Revision: 0
# Processed by: cddbd v1.4b42PL1 Copyright (c) Steve Scherf et al.
# Submitted via: CD-Transfer v1.0
#
DISCID=650c5c08
DTITLE=Starglow Energy - Starglow Energy
DYEAR=2001
DGENRE=
TTITLE0=Mosaic
TTITLE1=Life Of A Landscape
TTITLE2=Old As The Hills
TTITLE3=Eleanor Rigby
TTITLE4=Changing Colors
TTITLE5=Time Machine
TTITLE6=Back To The Sun
TTITLE7=Last Lullaby
EXTD=
EXTT0=
EXTT1=
EXTT2=
EXTT3=
EXTT4=
EXTT5=
EXTT6=
EXTT7=
PLAYORDER=
